<svg xmlns="http://www.w3.org/2000/svg" viewBox="0 0 32 32" width="32" height="32">
  <!-- Skull head -->
  <path d="M16 2C8.268 2 2 8.268 2 16s6.268 14 14 14 14-6.268 14-14S23.732 2 16 2z" fill="#2d3748"/>
  
  <!-- Eye sockets -->
  <ellipse cx="11" cy="12" rx="2" ry="2.5" fill="#4a5568"/>
  <ellipse cx="21" cy="12" rx="2" ry="2.5" fill="#4a5568"/>
  
  <!-- Nose -->
  <path d="M16 18c-1 0-2-0.5-2-1.5s1-1.5 2-1.5 2 0.5 2 1.5-1 1.5-2 1.5z" fill="#4a5568"/>
  
  <!-- Teeth -->
  <rect x="12" y="20" width="2" height="3" fill="#e2e8f0"/>
  <rect x="14" y="20" width="2" height="3" fill="#e2e8f0"/>
  <rect x="16" y="20" width="2" height="3" fill="#e2e8f0"/>
  <rect x="18" y="20" width="2" height="3" fill="#e2e8f0"/>
  
  <!-- Cracks -->
  <path d="M8 8l2 2" stroke="#1a202c" stroke-width="0.5" fill="none"/>
  <path d="M24 8l-2 2" stroke="#1a202c" stroke-width="0.5" fill="none"/>
</svg> 